<svg id="eFUyXf2RArQ1" xmlns="http://www.w3.org/2000/svg" xmlns:xlink="http://www.w3.org/1999/xlink" viewBox="0 0 300 300" shape-rendering="geometricPrecision" text-rendering="geometricPrecision"><rect width="75.403016" height="145.605824" rx="0" ry="0" transform="matrix(1.989311 0 0 2.060357 0 0.000026)" fill="#205fe1" stroke-width="0"/><rect width="56.162247" height="57.722309" rx="0" ry="0" transform="matrix(2.670835 0 0 2.089188 150.000017 179.407221)" fill="#122853" stroke-width="0"/><rect width="56.162247" height="87.883516" rx="0" ry="0" transform="matrix(2.670834 0 0 2.04142 149.999969 0.000026)" fill="#536019" stroke-width="0"/><ellipse rx="28.081124" ry="43.941758" transform="matrix(2.670835 0 0 2.04142 224.999959 89.703655)" fill="#9e369e" stroke-width="0"/><polygon points="0,-18.809394 5.527942,-7.60856 17.888796,-5.812422 8.944398,2.906211 11.055884,15.217119 0,9.404697 -11.055884,15.217119 -8.944398,2.906211 -17.888796,-5.812422 -5.527942,-7.60856 0,-18.809394" transform="matrix(4.192568 0 0 3.544082 224.999992 246.069259)" fill="#6c3301" stroke-width="0"/></svg>